<mxfile host="app.diagrams.net" modified="2023-12-01T17:44:43.093Z" agent="Mozilla/5.0 (Windows NT 10.0; Win64; x64) AppleWebKit/537.36 (KHTML, like Gecko) Chrome/119.0.0.0 Safari/537.36" etag="xqkggxkPKgXAGW_mLihE" version="22.1.5" type="github">
  <diagram name="Page-1" id="K9b8xsDUpgf45hTdN9Tu">
    <mxGraphModel dx="1256" dy="729" grid="1" gridSize="10" guides="1" tooltips="1" connect="1" arrows="1" fold="1" page="1" pageScale="1" pageWidth="850" pageHeight="1100" math="0" shadow="0">
      <root>
        <mxCell id="0" />
        <mxCell id="1" parent="0" />
        <mxCell id="nGmncHy7ulrMRw-FyPvK-2" value="" style="whiteSpace=wrap;html=1;aspect=fixed;movable=0;resizable=0;rotatable=0;deletable=0;editable=0;locked=1;connectable=0;" vertex="1" parent="1">
          <mxGeometry x="10" y="10" width="830" height="830" as="geometry" />
        </mxCell>
        <mxCell id="nGmncHy7ulrMRw-FyPvK-3" value="&lt;font style=&quot;font-size: 21px;&quot;&gt;&lt;b&gt;UTAE.py&lt;/b&gt;&lt;/font&gt;" style="text;strokeColor=none;align=center;fillColor=none;html=1;verticalAlign=middle;whiteSpace=wrap;rounded=0;" vertex="1" parent="1">
          <mxGeometry x="30" y="20" width="110" height="30" as="geometry" />
        </mxCell>
        <mxCell id="nGmncHy7ulrMRw-FyPvK-10" value="" style="edgeStyle=orthogonalEdgeStyle;rounded=0;orthogonalLoop=1;jettySize=auto;html=1;" edge="1" parent="1" source="nGmncHy7ulrMRw-FyPvK-4" target="nGmncHy7ulrMRw-FyPvK-6">
          <mxGeometry relative="1" as="geometry" />
        </mxCell>
        <mxCell id="nGmncHy7ulrMRw-FyPvK-4" value="&lt;font style=&quot;font-size: 18px;&quot;&gt;inc_conv&lt;/font&gt;" style="shape=process;whiteSpace=wrap;html=1;backgroundOutline=1;" vertex="1" parent="1">
          <mxGeometry x="160" y="150" width="120" height="60" as="geometry" />
        </mxCell>
        <mxCell id="nGmncHy7ulrMRw-FyPvK-12" value="" style="edgeStyle=orthogonalEdgeStyle;rounded=0;orthogonalLoop=1;jettySize=auto;html=1;" edge="1" parent="1" source="nGmncHy7ulrMRw-FyPvK-6" target="nGmncHy7ulrMRw-FyPvK-17">
          <mxGeometry relative="1" as="geometry">
            <mxPoint x="620" y="320" as="targetPoint" />
            <Array as="points">
              <mxPoint x="220" y="470" />
              <mxPoint x="620" y="470" />
            </Array>
          </mxGeometry>
        </mxCell>
        <mxCell id="nGmncHy7ulrMRw-FyPvK-29" value="" style="edgeStyle=orthogonalEdgeStyle;rounded=0;orthogonalLoop=1;jettySize=auto;html=1;" edge="1" parent="1" source="nGmncHy7ulrMRw-FyPvK-6" target="nGmncHy7ulrMRw-FyPvK-27">
          <mxGeometry relative="1" as="geometry" />
        </mxCell>
        <mxCell id="nGmncHy7ulrMRw-FyPvK-6" value="&lt;font style=&quot;font-size: 15px;&quot;&gt;Down Convolution Blocks&lt;/font&gt;" style="shape=process;whiteSpace=wrap;html=1;backgroundOutline=1;" vertex="1" parent="1">
          <mxGeometry x="160" y="250" width="120" height="60" as="geometry" />
        </mxCell>
        <mxCell id="nGmncHy7ulrMRw-FyPvK-8" value="" style="endArrow=classic;html=1;rounded=0;entryX=0;entryY=0.5;entryDx=0;entryDy=0;" edge="1" parent="1" target="nGmncHy7ulrMRw-FyPvK-4">
          <mxGeometry width="50" height="50" relative="1" as="geometry">
            <mxPoint x="40" y="180" as="sourcePoint" />
            <mxPoint x="110" y="179.32999999999998" as="targetPoint" />
          </mxGeometry>
        </mxCell>
        <mxCell id="nGmncHy7ulrMRw-FyPvK-9" value="&lt;font style=&quot;font-size: 15px;&quot;&gt;&lt;b&gt;INPUT&lt;/b&gt;&lt;/font&gt;" style="text;strokeColor=none;align=center;fillColor=none;html=1;verticalAlign=middle;whiteSpace=wrap;rounded=0;" vertex="1" parent="1">
          <mxGeometry x="51" y="153" width="60" height="30" as="geometry" />
        </mxCell>
        <mxCell id="nGmncHy7ulrMRw-FyPvK-24" value="" style="edgeStyle=orthogonalEdgeStyle;rounded=0;orthogonalLoop=1;jettySize=auto;html=1;" edge="1" parent="1" target="nGmncHy7ulrMRw-FyPvK-23">
          <mxGeometry relative="1" as="geometry">
            <mxPoint x="420" y="470" as="sourcePoint" />
          </mxGeometry>
        </mxCell>
        <mxCell id="nGmncHy7ulrMRw-FyPvK-20" value="" style="edgeStyle=orthogonalEdgeStyle;rounded=0;orthogonalLoop=1;jettySize=auto;html=1;" edge="1" parent="1" source="nGmncHy7ulrMRw-FyPvK-17" target="nGmncHy7ulrMRw-FyPvK-19">
          <mxGeometry relative="1" as="geometry" />
        </mxCell>
        <mxCell id="nGmncHy7ulrMRw-FyPvK-17" value="&lt;font style=&quot;font-size: 15px;&quot;&gt;Up Convolution Blocks&lt;/font&gt;" style="shape=process;whiteSpace=wrap;html=1;backgroundOutline=1;" vertex="1" parent="1">
          <mxGeometry x="560" y="250" width="120" height="60" as="geometry" />
        </mxCell>
        <mxCell id="nGmncHy7ulrMRw-FyPvK-19" value="&lt;font style=&quot;font-size: 15px;&quot;&gt;out_conv&lt;/font&gt;" style="shape=process;whiteSpace=wrap;html=1;backgroundOutline=1;" vertex="1" parent="1">
          <mxGeometry x="560" y="150" width="120" height="60" as="geometry" />
        </mxCell>
        <mxCell id="nGmncHy7ulrMRw-FyPvK-22" value="" style="endArrow=none;html=1;rounded=0;" edge="1" parent="1">
          <mxGeometry width="50" height="50" relative="1" as="geometry">
            <mxPoint x="10" y="550" as="sourcePoint" />
            <mxPoint x="840" y="550" as="targetPoint" />
          </mxGeometry>
        </mxCell>
        <mxCell id="nGmncHy7ulrMRw-FyPvK-28" value="" style="edgeStyle=orthogonalEdgeStyle;rounded=0;orthogonalLoop=1;jettySize=auto;html=1;" edge="1" parent="1" source="nGmncHy7ulrMRw-FyPvK-23" target="nGmncHy7ulrMRw-FyPvK-27">
          <mxGeometry relative="1" as="geometry" />
        </mxCell>
        <mxCell id="nGmncHy7ulrMRw-FyPvK-23" value="&lt;font style=&quot;font-size: 15px;&quot;&gt;Temporal Encoder&lt;/font&gt;" style="shape=process;whiteSpace=wrap;html=1;backgroundOutline=1;" vertex="1" parent="1">
          <mxGeometry x="360" y="350" width="120" height="60" as="geometry" />
        </mxCell>
        <mxCell id="nGmncHy7ulrMRw-FyPvK-30" value="" style="edgeStyle=orthogonalEdgeStyle;rounded=0;orthogonalLoop=1;jettySize=auto;html=1;" edge="1" parent="1" source="nGmncHy7ulrMRw-FyPvK-27" target="nGmncHy7ulrMRw-FyPvK-17">
          <mxGeometry relative="1" as="geometry" />
        </mxCell>
        <mxCell id="nGmncHy7ulrMRw-FyPvK-27" value="&lt;font style=&quot;font-size: 15px;&quot;&gt;Temporal Aggregator&lt;/font&gt;" style="shape=process;whiteSpace=wrap;html=1;backgroundOutline=1;" vertex="1" parent="1">
          <mxGeometry x="360" y="250" width="120" height="60" as="geometry" />
        </mxCell>
        <mxCell id="nGmncHy7ulrMRw-FyPvK-31" value="" style="endArrow=classic;html=1;rounded=0;" edge="1" parent="1">
          <mxGeometry width="50" height="50" relative="1" as="geometry">
            <mxPoint x="680" y="182" as="sourcePoint" />
            <mxPoint x="840" y="182" as="targetPoint" />
          </mxGeometry>
        </mxCell>
        <mxCell id="nGmncHy7ulrMRw-FyPvK-32" value="&lt;font style=&quot;font-size: 15px;&quot;&gt;&lt;b&gt;OUTPUT&lt;/b&gt;&lt;/font&gt;" style="text;strokeColor=none;align=center;fillColor=none;html=1;verticalAlign=middle;whiteSpace=wrap;rounded=0;" vertex="1" parent="1">
          <mxGeometry x="720" y="153" width="60" height="30" as="geometry" />
        </mxCell>
        <mxCell id="nGmncHy7ulrMRw-FyPvK-36" value="" style="endArrow=none;html=1;rounded=0;" edge="1" parent="1">
          <mxGeometry width="50" height="50" relative="1" as="geometry">
            <mxPoint x="40" y="600" as="sourcePoint" />
            <mxPoint x="40" y="180" as="targetPoint" />
          </mxGeometry>
        </mxCell>
        <mxCell id="nGmncHy7ulrMRw-FyPvK-44" style="edgeStyle=orthogonalEdgeStyle;rounded=0;orthogonalLoop=1;jettySize=auto;html=1;exitX=1;exitY=0.5;exitDx=0;exitDy=0;" edge="1" parent="1" source="nGmncHy7ulrMRw-FyPvK-37">
          <mxGeometry relative="1" as="geometry">
            <mxPoint x="480" y="600" as="targetPoint" />
          </mxGeometry>
        </mxCell>
        <mxCell id="nGmncHy7ulrMRw-FyPvK-37" value="&lt;font style=&quot;font-size: 15px;&quot;&gt;Dataloaders&lt;/font&gt;" style="shape=process;whiteSpace=wrap;html=1;backgroundOutline=1;" vertex="1" parent="1">
          <mxGeometry x="240" y="570" width="120" height="60" as="geometry" />
        </mxCell>
        <mxCell id="nGmncHy7ulrMRw-FyPvK-38" value="" style="endArrow=none;html=1;rounded=0;entryX=0;entryY=0.5;entryDx=0;entryDy=0;" edge="1" parent="1" target="nGmncHy7ulrMRw-FyPvK-37">
          <mxGeometry width="50" height="50" relative="1" as="geometry">
            <mxPoint x="40" y="600" as="sourcePoint" />
            <mxPoint x="80" y="640" as="targetPoint" />
          </mxGeometry>
        </mxCell>
        <mxCell id="nGmncHy7ulrMRw-FyPvK-39" value="Metrics&lt;br&gt;(IoU)" style="shape=process;whiteSpace=wrap;html=1;backgroundOutline=1;" vertex="1" parent="1">
          <mxGeometry x="480" y="570" width="120" height="60" as="geometry" />
        </mxCell>
        <mxCell id="nGmncHy7ulrMRw-FyPvK-40" value="" style="endArrow=classic;html=1;rounded=0;entryX=1;entryY=0.5;entryDx=0;entryDy=0;" edge="1" parent="1" target="nGmncHy7ulrMRw-FyPvK-39">
          <mxGeometry width="50" height="50" relative="1" as="geometry">
            <mxPoint x="799" y="180" as="sourcePoint" />
            <mxPoint x="730" y="609" as="targetPoint" />
            <Array as="points">
              <mxPoint x="799" y="600" />
            </Array>
          </mxGeometry>
        </mxCell>
      </root>
    </mxGraphModel>
  </diagram>
</mxfile>
